<?xml version="1.0" standalone="no"?><!DOCTYPE svg PUBLIC "-//W3C//DTD SVG 1.1//EN" "http://www.w3.org/Graphics/SVG/1.1/DTD/svg11.dtd"><svg t="1624413457952" class="icon" viewBox="0 0 1024 1024" version="1.1" xmlns="http://www.w3.org/2000/svg" p-id="10102" width="48" height="48" xmlns:xlink="http://www.w3.org/1999/xlink"><defs><style type="text/css"></style></defs><path d="M870.4 1024l-729.6-4.864c17.0624-70.7584 38.9888-121.2672 65.7536-151.552 73.9072-75.7248 186.7008-132.8 299.9552-132.8 115.904 0 231.3472 59.7888 305.1008 138.1504C850.8032 928.32 870.4 978.6624 870.4 1024z" fill="#1296db" p-id="10103"></path><path d="M506.496 618.6624c39.5776 0 71.6544 32 71.6544 71.4624v71.4624c0 39.4624-32.0768 71.4624-71.6416 71.4624-39.5648 0-71.6416-32-71.6416-71.4624v-71.4624c0-39.4624 32.0768-71.4624 71.6416-71.4624" fill="#1296db" p-id="10104"></path><path d="M291.584 529.344V356.736c0-47.8848 48.576-95.3728 97.5616-95.3728H623.872c48.9856 0 97.5616 47.488 97.5616 95.36v172.608H291.584z" fill="#1296db" p-id="10105"></path><path d="M276.8 555.2256c0 18.0352 9.6 34.7008 25.2032 43.7248a50.3296 50.3296 0 0 0 50.3936 0 50.5088 50.5088 0 0 0 25.2032-43.7248 50.432 50.432 0 0 0-50.4064-50.496 50.4448 50.4448 0 0 0-50.3936 50.496M635.2 555.2256c0 18.0352 9.6 34.7008 25.2032 43.7248a50.3296 50.3296 0 0 0 50.3936 0 50.5088 50.5088 0 0 0 0-87.4624 50.3296 50.3296 0 0 0-50.3936 0 50.5088 50.5088 0 0 0-25.2032 43.7376" fill="#1296db" p-id="10106"></path><path d="M506.496 323.904c98.9312 0 179.1104 79.9744 179.1104 178.6368v71.4624c0 98.6624-80.1792 178.6496-179.1104 178.6496-98.9184 0-179.1104-79.9872-179.1104-178.6496v-71.4624c0-98.6624 80.2048-178.6368 179.1104-178.6368" fill="#1296db" p-id="10107"></path><path d="M506.496 364.4928c71.2064 0 128.9216-32.1408 128.9216-71.7824v-90.3296c-59.4304 12.3648-102.4 18.56-128.9088 18.56-71.1936 0-128.896 32.128-128.896 71.7824 0 39.6416 57.7024 71.7696 128.896 71.7696" fill="#1296db" p-id="10108"></path><path d="M0 0m512 0l0 0q512 0 512 512l0 0q0 512-512 512l0 0q-512 0-512-512l0 0q0-512 512-512Z" fill="#1296db" opacity=".4" p-id="10109"></path><path d="M403.584 453.1712l2.8544-59.5712c0-5.2992-4.096-9.6-9.152-9.6-5.0432 0-9.1392 4.3008-9.1392 9.6l-2.5856 65.6896A38.4 38.4 0 0 0 423.936 499.2h165.9904a38.4 38.4 0 0 0 38.3744-39.808l-2.432-65.792c0-5.2992-4.096-9.6-9.1392-9.6-5.056 0-9.152 4.3008-9.152 9.6l2.688 59.648a25.6 25.6 0 0 1-25.5616 26.752H429.1456a25.6 25.6 0 0 1-25.5744-26.8288z" fill="#1296db" p-id="10110"></path><path d="M545.8432 335.0912c3.328 3.5968 8.7424 3.5968 12.0832 0a9.7408 9.7408 0 0 0 0-13.0432l-43.3024-44.0704a12.8 12.8 0 0 0-18.1504-0.1024l-44.4416 44.1728a9.7408 9.7408 0 0 0 0 13.0432c3.3408 3.5968 8.7552 3.5968 12.096 0l32.9216-30.976v109.056c0 5.0944 3.84 9.2288 8.5504 9.2288 4.7232 0 8.5504-4.1344 8.5504-9.216v-109.0816l31.6928 30.976z" fill="#1296db" p-id="10111"></path></svg>